<svg width="28" height="28" viewBox="0 0 28 28" fill="none" xmlns="http://www.w3.org/2000/svg">
    <path fill-rule="evenodd" clip-rule="evenodd" d="M6.22729 11.7969C6.22729 9.2317 7.91882 6.88428 10.107 6.89542C11.7242 6.89542 12.8853 7.92025 13.6261 9.4342C14.3668 7.92035 15.5438 6.88428 17.1611 6.88428C19.1933 6.88428 21.0207 9.21583 21.0207 11.7806C21.0207 12.2354 20.9471 12.7152 20.8516 13.1468C20.0397 12.1487 19.019 11.4916 17.6321 11.4916C15.1867 11.4916 13.2044 13.4739 13.2044 15.9193C13.2044 17.6708 14.0057 18.9718 15.4815 19.6899C14.3434 20.4751 13.624 20.8271 13.624 20.8271C13.624 20.8271 11.6661 19.8754 9.75126 18.2222C7.97273 16.6866 6.22729 14.3621 6.22729 11.7969ZM18.6869 16.1299C18.6869 16.5957 18.3094 16.9733 17.8436 16.9733C17.3778 16.9733 17.0002 16.5957 17.0002 16.1299C17.0002 16.0798 17.0046 16.0308 17.0129 15.9831L15.9927 14.9628L16.5891 14.3665L17.5585 15.3359C17.6475 15.3039 17.7435 15.2865 17.8436 15.2865C18.3094 15.2865 18.6869 15.6641 18.6869 16.1299ZM17.6316 19.5041C19.6111 19.5041 21.2159 17.8993 21.2159 15.9197C21.2159 13.9402 19.6111 12.3354 17.6316 12.3354C15.652 12.3354 14.0472 13.9402 14.0472 15.9197C14.0472 17.8993 15.652 19.5041 17.6316 19.5041ZM17.6316 18.6607C19.1454 18.6607 20.3725 17.4335 20.3725 15.9197C20.3725 14.4059 19.1454 13.1788 17.6316 13.1788C16.1178 13.1788 14.8906 14.4059 14.8906 15.9197C14.8906 17.4335 16.1178 18.6607 17.6316 18.6607Z" fill="white"/>
    </svg>
    