<svg width="63" height="64" viewBox="0 0 63 64" fill="none" xmlns="http://www.w3.org/2000/svg">
    <path d="M42.2004 40.7829C42.2004 41.8669 41.3217 42.7456 40.2376 42.7456C39.1536 42.7456 38.2749 41.8669 38.2749 40.7829C38.2749 40.6663 38.2851 40.5522 38.3045 40.4412L35.9302 38.0668L37.3181 36.679L39.5742 38.935C39.7814 38.8607 40.0048 38.8201 40.2376 38.8201C41.3217 38.8201 42.2004 39.6989 42.2004 40.7829Z" fill="white"/>
    <path fill-rule="evenodd" clip-rule="evenodd" d="M48.0899 40.2925C48.0899 44.8995 44.3552 48.6342 39.7482 48.6342C35.1412 48.6342 31.4065 44.8995 31.4065 40.2925C31.4065 35.6855 35.1412 31.9508 39.7482 31.9508C44.3552 31.9508 48.0899 35.6855 48.0899 40.2925ZM46.1272 40.2925C46.1272 43.8156 43.2713 46.6715 39.7482 46.6715C36.2252 46.6715 33.3693 43.8156 33.3693 40.2925C33.3693 36.7695 36.2252 33.9136 39.7482 33.9136C43.2713 33.9136 46.1272 36.7695 46.1272 40.2925Z" fill="white"/>
    <path fill-rule="evenodd" clip-rule="evenodd" d="M43.0295 30.6503C41.9997 30.2999 40.8957 30.1098 39.7474 30.1098C34.1233 30.1098 29.5641 34.669 29.5641 40.293C29.5641 44.6322 32.2782 48.3376 36.1013 49.8041C34.6435 50.3539 33.0601 50.6553 31.405 50.6553C24.1741 50.6553 18.3123 44.9035 18.3123 37.8081C18.3123 26.5669 31.405 13.2474 31.405 13.2474C31.405 13.2474 39.6103 21.5948 43.0295 30.6503Z" fill="white"/>
    </svg>
    