<svg width="28" height="28" viewBox="0 0 28 28" fill="none" xmlns="http://www.w3.org/2000/svg">
    <path fill-rule="evenodd" clip-rule="evenodd" d="M13.6871 7.49713C15.2918 7.58494 16.7582 8.19204 17.9207 9.15313L16.7558 10.3179L17.3279 10.89L18.5153 9.70274C19.6083 10.8313 20.339 12.3124 20.5203 13.9588H18.8184V14.7679H20.5643C20.5633 16.5237 19.9404 18.1337 18.9032 19.3906L17.5195 18.0069L16.9474 18.579L18.3541 19.9857L18.349 19.9906L18.9118 20.5719C20.4293 19.1025 21.3734 17.0429 21.3734 14.7635C21.3734 10.2973 17.7508 6.677 13.2825 6.677C8.81425 6.677 5.19165 10.2973 5.19165 14.7635C5.19165 16.9824 6.08634 18.9932 7.53383 20.4538L8.10853 19.8843L8.10092 19.8766L9.31666 18.6609L8.74455 18.0888L7.56396 19.2694C6.58556 18.031 6.00173 16.4678 6.00074 14.7679H7.64023V13.9588H6.04476C6.22597 12.3124 6.95673 10.8313 8.04975 9.7027L9.28619 10.9391L9.8583 10.367L8.64435 9.15309C9.80692 8.19203 11.2732 7.58495 12.878 7.49713V9.50881H13.6871V7.49713ZM12.0486 19.9459C11.9523 19.8193 11.9054 19.6619 11.9169 19.5033L12.8755 13.9123C12.9339 13.1046 13.7531 13.1119 13.8114 13.9197L14.7747 19.5033C14.7861 19.6619 14.7393 19.8193 14.6429 19.9459L13.8652 20.8404C13.4839 21.0389 13.2816 21.0389 12.8263 20.8404L12.0486 19.9459Z" fill="white"/>
    </svg>
    