<svg width="32" height="32" viewBox="0 0 32 32" fill="none" xmlns="http://www.w3.org/2000/svg">
    <path fill-rule="evenodd" clip-rule="evenodd" d="M13.1251 5.71533C12.8379 5.71533 12.605 5.94822 12.605 6.23549V7.79597C12.605 8.08325 12.8379 8.31613 13.1251 8.31613H13.6453V9.4984C13.3423 9.6055 13.1251 9.89451 13.1251 10.2342V23.9209C13.1251 25.3573 14.2896 26.5217 15.7259 26.5217C17.1623 26.5217 18.3267 25.3573 18.3267 23.9209V10.2342C18.3267 9.89451 18.1096 9.6055 17.8066 9.4984V8.31613H18.3267C18.614 8.31613 18.8469 8.08325 18.8469 7.79597V6.23549C18.8469 5.94822 18.614 5.71533 18.3267 5.71533H13.1251ZM14.6856 9.71406V8.31613H16.7663V9.71406C16.7663 10.0538 16.9834 10.3428 17.2864 10.4499V12.9976H14.1655V10.4499C14.4685 10.3428 14.6856 10.0538 14.6856 9.71406Z" fill="white"/>
    </svg>
    