<svg width="46" height="46" viewBox="0 0 46 46" fill="none" xmlns="http://www.w3.org/2000/svg">
    <path d="M9.73268 18.8893C9.73268 14.7355 12.4981 10.8837 16.2849 10.8837C18.9127 10.8837 20.8627 12.6118 22.0663 15.0634C23.2699 12.612 25.2198 10.8837 27.8477 10.8837C31.635 10.8837 34.3999 14.7361 34.3999 18.8893C34.3999 27.7799 22.0663 34.0999 22.0663 34.0999C22.0663 34.0999 13.7583 30.1003 10.7797 23.5397H18.1375L19.3071 21.4607L20.6731 26.2421L23.8722 22.129H27.8704V20.678H23.1625L21.283 23.0945L19.747 17.7188L17.289 22.0887H10.2259C10.3797 22.5852 10.566 23.0691 10.7797 23.5397L7.55615 23.5396V22.0886L10.2259 22.0887C9.91146 21.0736 9.73268 20.0055 9.73268 18.8893Z" fill="white"/>
    </svg>
    