<svg width="60" height="60" viewBox="0 0 60 60" fill="none" xmlns="http://www.w3.org/2000/svg">
    <path d="M12.4189 24.7363C12.4189 19.1656 16.1276 14 21.206 14C24.7302 14 27.3453 16.3176 28.9595 19.6054C30.5735 16.3178 33.1886 14 36.7129 14C41.7919 14 45.5 19.1665 45.5 24.7363C45.5 36.6594 28.9595 45.1351 28.9595 45.1351C28.9595 45.1351 17.8177 39.7713 13.823 30.9729H23.6906L25.259 28.1848L27.0911 34.5971L31.3813 29.0811H36.7432V27.1351H30.4295L27.9089 30.3759L25.8491 23.1666L22.5526 29.027H13.0804C13.2866 29.6929 13.5365 30.3418 13.823 30.9729L9.5 30.9728V29.0269L13.0804 29.027C12.6587 27.6657 12.4189 26.2333 12.4189 24.7363Z" fill="white"/>
    </svg>
    