<svg width="60" height="60" viewBox="0 0 60 60" fill="none" xmlns="http://www.w3.org/2000/svg">
    <path fill-rule="evenodd" clip-rule="evenodd" d="M25 10C24.4477 10 24 10.4477 24 11V14C24 14.5523 24.4477 15 25 15H26V17.2729C25.4174 17.4788 25 18.0344 25 18.6875V45C25 47.7614 27.2386 50 30 50C32.7614 50 35 47.7614 35 45V18.6875C35 18.0344 34.5826 17.4788 34 17.2729V15H35C35.5523 15 36 14.5523 36 14V11C36 10.4477 35.5523 10 35 10H25ZM28 17.6875V15H32V17.6875C32 18.3406 32.4174 18.8962 33 19.1021V24H27V19.1021C27.5826 18.8962 28 18.3406 28 17.6875Z" fill="white"/>
    </svg>
    