<svg width="60" height="60" viewBox="0 0 60 60" fill="none" xmlns="http://www.w3.org/2000/svg">
    <path fill-rule="evenodd" clip-rule="evenodd" d="M12.4297 25.0184C12.4297 19.2731 16.2182 14.0156 21.119 14.0406C24.741 14.0406 27.3416 16.3359 29.0006 19.7266C30.6596 16.3361 33.2958 14.0156 36.918 14.0156C41.4696 14.0156 45.5622 19.2376 45.5622 24.9819C45.5622 26.0006 45.3974 27.075 45.1834 28.0418C43.3652 25.8064 41.0791 24.3345 37.9729 24.3345C32.496 24.3345 28.0562 28.7743 28.0562 34.2512C28.0562 38.1741 29.851 41.0878 33.1562 42.6962C30.6073 44.4549 28.9961 45.2431 28.9961 45.2431C28.9961 45.2431 24.6108 43.1117 20.3223 39.409C16.3389 35.9699 12.4297 30.7636 12.4297 25.0184ZM40.335 34.7229C40.335 35.7661 39.4894 36.6118 38.4461 36.6118C37.4029 36.6118 36.5572 35.7661 36.5572 34.7229C36.5572 34.6107 36.5671 34.5009 36.5858 34.3941L34.3008 32.1091L35.6365 30.7734L37.8077 32.9446C38.0071 32.873 38.222 32.834 38.4461 32.834C39.4894 32.834 40.335 33.6797 40.335 34.7229ZM37.9731 42.2782C42.4067 42.2782 46.0009 38.684 46.0009 34.2504C46.0009 29.8168 42.4067 26.2227 37.9731 26.2227C33.5395 26.2227 29.9453 29.8168 29.9453 34.2504C29.9453 38.684 33.5395 42.2782 37.9731 42.2782ZM37.9731 40.3893C41.3636 40.3893 44.112 37.6409 44.112 34.2504C44.112 30.86 41.3636 28.1115 37.9731 28.1115C34.5826 28.1115 31.8342 30.86 31.8342 34.2504C31.8342 37.6409 34.5826 40.3893 37.9731 40.3893Z" fill="white"/>
    </svg>
    