<svg width="60" height="60" viewBox="0 0 60 60" fill="none" xmlns="http://www.w3.org/2000/svg">
    <path fill-rule="evenodd" clip-rule="evenodd" d="M28.9 15.9027C32.4701 16.098 35.7324 17.4487 38.3188 19.5868L35.7272 22.178L36.9999 23.4509L39.6416 20.8096C42.0732 23.3204 43.6989 26.6154 44.1021 30.2781H40.3159V32.0781H44.2C44.1978 35.9844 42.812 39.5662 40.5046 42.3624L37.4262 39.2842L36.1535 40.5569L39.2828 43.6863L39.2715 43.6974L40.5237 44.9905C43.8997 41.7214 46 37.1394 46 32.0684C46 22.1322 37.9407 14.0781 28 14.0781C18.0593 14.0781 10 22.1322 10 32.0684C10 37.0048 11.9904 41.4783 15.2107 44.7279L16.4893 43.4609L16.4723 43.4438L19.177 40.739L17.9043 39.4662L15.2777 42.0928C13.1011 39.3377 11.8022 35.8601 11.8 32.0781H15.4474V30.2781H11.8979C12.3011 26.6154 13.9268 23.3203 16.3585 20.8095L19.1093 23.5602L20.382 22.2873L17.6813 19.5868C20.2677 17.4487 23.5299 16.0981 27.1 15.9027V20.3781H28.9V15.9027ZM25.2578 43.5947C25.0435 43.3131 24.9392 42.963 24.9647 42.61L27.0973 30.1717C27.2272 28.3746 29.0497 28.3909 29.1795 30.1881L31.3226 42.61C31.348 42.963 31.2438 43.3131 31.0294 43.5947L29.2993 45.5849C28.4509 46.0263 28.0009 46.0263 26.988 45.5849L25.2578 43.5947Z" fill="white"/>
    </svg>
    