<svg width="219" height="406" viewBox="0 0 219 406" fill="none" xmlns="http://www.w3.org/2000/svg">
    <g filter="url(#filter0_i_2508_11345)">
    <path d="M108.495 405.807C108.495 405.807 99.4992 315.97 74.6271 299.579C49.755 283.188 48.2767 262.011 36.4926 242.765C27.6617 228.341 13.7423 197.135 15.3417 183.54C15.3417 183.54 42.9352 184.221 51.9054 182.281C60.5303 180.415 60.6535 159.536 60.6535 159.536C64.2588 145.361 71.7153 109.695 81.2242 89.1339C77.5328 77.3142 75.6267 69.4577 74.6271 51.5701C71.895 42.827 57.9859 36.7206 46.6212 29.2076C38.5326 31.2463 21.0299 34.3225 9.42747 31.2395C1.22946 29.0611 -6.75247 13.241 10.6032 11.0069C29.5617 9.67236 37.622 -2.35507 51.3242 0.412024C64.2453 3.02051 87.0225 15.2359 108.045 29.2076C114.64 35.6598 123.977 69.9913 127.696 95.9607C130.488 106.515 140.049 121.917 140.63 131.262C143.034 169.923 147.095 199.409 153.812 245.711C163.215 310.53 219.003 400.13 219.003 400.13L108.495 405.807Z" fill="url(#paint0_radial_2508_11345)"/>
    </g>
    <g filter="url(#filter1_d_2508_11345)">
    <path d="M79.4149 124.865C63.7641 110.158 45.128 71.5004 27.0169 85.7606C8.90537 100.021 26.7291 137.702 40.866 157.113C48.0738 167.01 73.815 198.805 82.2325 224.338C87.0989 236.311 133.665 206.805 147.062 194.992C143.324 192.226 115.694 181.748 102.178 157.113C95.4889 144.92 91.3571 136.087 79.4149 124.865Z" fill="url(#paint1_radial_2508_11345)" shape-rendering="crispEdges"/>
    </g>
    <g filter="url(#filter2_d_2508_11345)">
    <path d="M37.2058 121.502C32.3322 117.797 22.9981 104.028 22.9961 96.6364C22.9944 90.1013 31.6275 83.8999 36.3667 84.9826C43.5237 86.6175 54.5998 99.3196 56.4405 103.307C58.5718 109.248 42.0794 125.207 37.2058 121.502Z" fill="url(#paint2_linear_2508_11345)"/>
    </g>
    <defs>
    <filter id="filter0_i_2508_11345" x="0.269531" y="0" width="222.734" height="405.807" filterUnits="userSpaceOnUse" color-interpolation-filters="sRGB">
    <feFlood flood-opacity="0" result="BackgroundImageFix"/>
    <feBlend mode="normal" in="SourceGraphic" in2="BackgroundImageFix" result="shape"/>
    <feColorMatrix in="SourceAlpha" type="matrix" values="0 0 0 0 0 0 0 0 0 0 0 0 0 0 0 0 0 0 127 0" result="hardAlpha"/>
    <feOffset dx="4"/>
    <feGaussianBlur stdDeviation="5"/>
    <feComposite in2="hardAlpha" operator="arithmetic" k2="-1" k3="1"/>
    <feColorMatrix type="matrix" values="0 0 0 0 0.102745 0 0 0 0 0.00784314 0 0 0 0 0.223529 0 0 0 0.4 0"/>
    <feBlend mode="normal" in2="shape" result="effect1_innerShadow_2508_11345"/>
    </filter>
    <filter id="filter1_d_2508_11345" x="7.34888" y="72.6558" width="147.713" height="164.487" filterUnits="userSpaceOnUse" color-interpolation-filters="sRGB">
    <feFlood flood-opacity="0" result="BackgroundImageFix"/>
    <feColorMatrix in="SourceAlpha" type="matrix" values="0 0 0 0 0 0 0 0 0 0 0 0 0 0 0 0 0 0 127 0" result="hardAlpha"/>
    <feOffset dx="-2"/>
    <feGaussianBlur stdDeviation="5"/>
    <feComposite in2="hardAlpha" operator="out"/>
    <feColorMatrix type="matrix" values="0 0 0 0 0.2625 0 0 0 0 0.0535937 0 0 0 0 0.0535937 0 0 0 0.2 0"/>
    <feBlend mode="normal" in2="BackgroundImageFix" result="effect1_dropShadow_2508_11345"/>
    <feBlend mode="normal" in="SourceGraphic" in2="effect1_dropShadow_2508_11345" result="shape"/>
    </filter>
    <filter id="filter2_d_2508_11345" x="21.2075" y="83.9646" width="37.2108" height="40.7714" filterUnits="userSpaceOnUse" color-interpolation-filters="sRGB">
    <feFlood flood-opacity="0" result="BackgroundImageFix"/>
    <feColorMatrix in="SourceAlpha" type="matrix" values="0 0 0 0 0 0 0 0 0 0 0 0 0 0 0 0 0 0 127 0" result="hardAlpha"/>
    <feOffset dy="0.894305"/>
    <feGaussianBlur stdDeviation="0.894305"/>
    <feComposite in2="hardAlpha" operator="out"/>
    <feColorMatrix type="matrix" values="0 0 0 0 0.262745 0 0 0 0 0.054902 0 0 0 0 0.054902 0 0 0 0.1 0"/>
    <feBlend mode="normal" in2="BackgroundImageFix" result="effect1_dropShadow_2508_11345"/>
    <feBlend mode="normal" in="SourceGraphic" in2="effect1_dropShadow_2508_11345" result="shape"/>
    </filter>
    <radialGradient id="paint0_radial_2508_11345" cx="0" cy="0" r="1" gradientUnits="userSpaceOnUse" gradientTransform="translate(36.3511 -5.14923) rotate(76.5788) scale(416.989 175.649)">
    <stop stop-color="#DFACA1"/>
    <stop offset="0.520833" stop-color="#DFACA1"/>
    <stop offset="0.734375" stop-color="#DA9EB9"/>
    <stop offset="0.911275" stop-color="#E095BF" stop-opacity="0.49"/>
    <stop offset="1" stop-color="#EB86C9" stop-opacity="0"/>
    </radialGradient>
    <radialGradient id="paint1_radial_2508_11345" cx="0" cy="0" r="1" gradientUnits="userSpaceOnUse" gradientTransform="translate(30.4289 81.6678) rotate(55.4874) scale(137.863 114.262)">
    <stop stop-color="#DFACA1"/>
    <stop offset="0.957364" stop-color="#DFACA1"/>
    <stop offset="1" stop-color="#DFACA1" stop-opacity="0"/>
    </radialGradient>
    <linearGradient id="paint2_linear_2508_11345" x1="60.5251" y1="131.197" x2="33.2742" y2="92.6575" gradientUnits="userSpaceOnUse">
    <stop stop-color="#D792B3"/>
    <stop offset="1" stop-color="#FFDCED"/>
    </linearGradient>
    </defs>
    </svg>
    